<svg xmlns="http://www.w3.org/2000/svg" width="38" height="37.92" viewBox="0 0 38 37.92">
  <g id="Capa_2" data-name="Capa 2" transform="translate(0 -0.05)">
    <g id="Capa_1" data-name="Capa 1" transform="translate(0 0.05)">
      <rect id="Rectangle_13" data-name="Rectangle 13" width="7.846" height="25.328" transform="translate(0.751 12.592)" fill="#1f1b1c"/>
      <path id="Path_3" data-name="Path 3" d="M4.634,9.318A4.634,4.634,0,1,0,0,4.695,4.65,4.65,0,0,0,4.634,9.318Z" transform="translate(0 -0.05)" fill="#1f1b1c"/>
      <path id="Path_4" data-name="Path 4" d="M16.031,20.232c0-3.564,1.6-5.689,4.794-5.689,2.892,0,4.283,2.045,4.283,5.689v13.3h7.8V17.548c0-6.775-3.851-10.067-9.22-10.067a8.853,8.853,0,0,0-7.638,4.187V8.2H8.52V33.527h7.511Z" transform="translate(5.095 4.393)" fill="#1f1b1c"/>
    </g>
  </g>
</svg>
