<svg xmlns="http://www.w3.org/2000/svg" width="38.463" height="37.502" viewBox="0 0 38.463 37.502">
  <path id="GitHub-Logo.wine" d="M18.983,0A18.6,18.6,0,0,0,0,18.921,19.442,19.442,0,0,0,13.144,37.47c.993.178,1.342-.434,1.342-.938,0-.481-.023-3.133-.023-4.761,0,0-5.428,1.163-6.568-2.311,0,0-.884-2.257-2.156-2.838,0,0-1.776-1.217.124-1.194a4.093,4.093,0,0,1,2.993,2,4.1,4.1,0,0,0,5.653,1.621,4.31,4.31,0,0,1,1.241-2.613c-4.335-.481-8.708-1.109-8.708-8.569A5.877,5.877,0,0,1,8.871,13.3a7.327,7.327,0,0,1,.2-5.265c1.621-.5,5.351,2.094,5.351,2.094a18.32,18.32,0,0,1,9.74,0s3.73-2.606,5.351-2.094a7.323,7.323,0,0,1,.2,5.265,6.028,6.028,0,0,1,2,4.567c0,7.483-4.567,8.08-8.9,8.569a4.586,4.586,0,0,1,1.318,3.6c0,2.613-.023,5.847-.023,6.483,0,.5.357,1.117,1.342.938A19.263,19.263,0,0,0,38.463,18.921C38.463,8.166,29.739,0,18.983,0Z" fill="#1f1b1c"/>
</svg>
